<?xml version="1.0" ?>
<svg xmlns="http://www.w3.org/2000/svg" version="1.1" width="600" height="600">
  <defs/>
  <g>
    <path d="M 204.74298095703125 620.793212890625 C 187.86509704589844 642.207275390625 163.06561279296875 636.242431640625 107.94568634033203 637.26513671875 C 20.937864303588867 622.4954223632812 5.305230140686035 620.3112182617188 -19.732271194458008 580.4556884765625 C 41.20981216430664 516.1015625 42.230655670166016 526.263916015625 59.968482971191406 542.1620483398438 C 69.99471282958984 554.8855590820312 91.78206634521484 552.0243530273438 204.74298095703125 620.793212890625" stroke-width="0.0" fill="rgb(101, 203, 60)" opacity="0.7463505"/>
    <path d="M 273.66717529296875 294.52783203125 C 252.52627563476562 336.00250244140625 232.3871307373047 200.5824737548828 213.28221130371094 363.3514404296875 C 125.79109954833984 213.24954223632812 98.45782470703125 199.90939331054688 88.69764709472656 195.40858459472656 C 74.50676727294922 152.28456115722656 93.1881332397461 153.29588317871094 201.38482666015625 87.15880584716797 C 180.3876190185547 108.78263854980469 116.0896987915039 173.9077606201172 273.66717529296875 294.52783203125" stroke-width="0.0" fill="rgb(122, 8, 55)" opacity="0.6259321"/>
    <path d="M 630.8026733398438 522.8475341796875 C 556.8157348632812 863.06201171875 483.80609130859375 755.1476440429688 254.37258911132812 648.9801025390625 C 91.59288024902344 580.301025390625 95.00287628173828 550.8256225585938 39.484771728515625 442.6976013183594 C 8.566752433776855 362.77349853515625 -2.7312405109405518 360.4662780761719 272.3026123046875 380.8494567871094 C 424.46929931640625 370.792724609375 264.235107421875 338.8518981933594 630.8026733398438 522.8475341796875" stroke-width="0.0" fill="rgb(11, 142, 206)" opacity="0.96819234"/>
    <path d="M 548.7139892578125 437.8278503417969 C 364.7641906738281 443.8045349121094 323.368408203125 463.2982482910156 333.9769592285156 369.1398010253906 C 278.0240783691406 383.5603332519531 256.2492980957031 315.84710693359375 261.1811218261719 317.8045959472656 C 260.3304443359375 270.479736328125 358.302001953125 155.97244262695312 318.3376159667969 287.303466796875 C 330.9997863769531 359.9323425292969 450.9888000488281 175.02452087402344 548.7139892578125 437.8278503417969" stroke-width="0.0" fill="rgb(0, 0, 5)" opacity="1.0"/>
    <path d="M 507.8746032714844 36.49210739135742 C 539.0026245117188 111.32718658447266 505.3262634277344 90.8028564453125 386.5791931152344 101.33209991455078 C 373.23907470703125 107.32127380371094 361.208740234375 118.13599395751953 323.818359375 -2.3326079845428467 C 327.1083679199219 -64.90196228027344 354.54150390625 -49.4616584777832 463.95001220703125 -73.83354949951172 C 518.7133178710938 -55.40718078613281 504.6531982421875 -18.823911666870117 507.8746032714844 36.49210739135742" stroke-width="0.0" fill="rgb(2, 97, 161)" opacity="0.9555192"/>
    <path d="M 336.0227966308594 76.94522857666016 C 283.0741271972656 132.7860107421875 285.30706787109375 235.89926147460938 231.2039031982422 234.2899932861328 C 153.10458374023438 305.56304931640625 149.72561645507812 292.7513427734375 139.88534545898438 91.80494689941406 C 118.44709777832031 -37.53348159790039 126.92413330078125 -51.09944534301758 172.31399536132812 -45.298118591308594 C 396.2821960449219 -28.415630340576172 358.9648742675781 -4.757931232452393 336.0227966308594 76.94522857666016" stroke-width="0.0" fill="rgb(1, 105, 173)" opacity="0.8663582"/>
    <path d="M 241.1840362548828 52.59309387207031 C 154.1710205078125 197.63693237304688 152.67066955566406 205.9371337890625 142.08505249023438 167.81561279296875 C 109.94728088378906 161.27503967285156 78.44110870361328 175.783203125 -26.253965377807617 79.98204803466797 C -37.014564514160156 10.192526817321777 -45.250465393066406 -8.592769622802734 49.15934753417969 -26.039073944091797 C 265.7689208984375 -15.93058967590332 253.1853790283203 5.8438920974731445 241.1840362548828 52.59309387207031" stroke-width="0.0" fill="rgb(17, 155, 226)" opacity="1.0"/>
    <path d="M 660.2810668945312 44.375431060791016 C 575.762939453125 71.06102752685547 543.9708862304688 56.70317840576172 492.3238525390625 66.94793701171875 C 507.0238342285156 94.85906982421875 482.0023193359375 103.35488891601562 457.1564636230469 40.355106353759766 C 450.7836608886719 -18.016380310058594 473.9192810058594 -37.980377197265625 521.3687744140625 -51.67052459716797 C 601.960205078125 -18.597808837890625 612.7512817382812 -12.799205780029297 660.2810668945312 44.375431060791016" stroke-width="0.0" fill="rgb(19, 85, 38)" opacity="1.0"/>
    <path d="M 573.8385620117188 161.45016479492188 C 587.4360961914062 194.56613159179688 594.6569213867188 217.51783752441406 453.0411071777344 323.5373840332031 C 358.0272521972656 259.6350402832031 380.2324523925781 232.2766876220703 382.58013916015625 173.03012084960938 C 384.3231506347656 44.59743881225586 434.7026062011719 54.64771270751953 494.9298095703125 47.064208984375 C 497.4333190917969 96.86573791503906 511.3951721191406 100.95084381103516 573.8385620117188 161.45016479492188" stroke-width="0.0" fill="rgb(62, 191, 43)" opacity="0.7400035"/>
    <path d="M 415.9231872558594 184.66322326660156 C 452.51025390625 310.67132568359375 451.0035095214844 350.8558654785156 362.1186218261719 237.33901977539062 C 420.5164794921875 142.9189453125 353.13702392578125 192.8559112548828 238.43797302246094 156.1568603515625 C 243.19139099121094 46.70387649536133 226.2699432373047 4.113387584686279 305.3416442871094 -6.620558261871338 C 385.3174743652344 53.32118225097656 390.7100830078125 73.24781036376953 415.9231872558594 184.66322326660156" stroke-width="0.0" fill="rgb(19, 156, 230)" opacity="0.96581966"/>
    <path d="M 639.808837890625 110.0698471069336 C 665.2618408203125 163.30038452148438 671.4531860351562 173.1048583984375 567.9114990234375 181.59622192382812 C 489.0991516113281 158.98045349121094 503.64935302734375 137.2141876220703 490.2527160644531 80.21698760986328 C 549.44140625 53.84552001953125 583.1838989257812 69.98529815673828 640.0043334960938 33.914188385009766 C 615.1995849609375 11.610092163085938 618.2758178710938 25.901676177978516 639.808837890625 110.0698471069336" stroke-width="0.0" fill="rgb(170, 202, 0)" opacity="0.7813499"/>
    <path d="M 222.72714233398438 305.6788635253906 C 315.635986328125 392.1843566894531 405.28314208984375 340.9166259765625 361.0643005371094 427.1628112792969 C -10.627370834350586 379.5499572753906 4.0831298828125 331.5159912109375 7.557120323181152 313.49652099609375 C 70.80955505371094 182.8875274658203 45.00169372558594 141.62721252441406 73.78305053710938 107.07544708251953 C 97.09991455078125 192.15936279296875 100.1025161743164 195.0616455078125 222.72714233398438 305.6788635253906" stroke-width="0.0" fill="rgb(135, 31, 0)" opacity="1.0"/>
    <path d="M 173.46864318847656 216.94241333007812 C 151.0470428466797 240.1797637939453 108.16893005371094 230.0432586669922 15.937921524047852 303.9434814453125 C -40.2900276184082 280.2012023925781 -26.64672088623047 248.0885009765625 -26.258878707885742 161.57554626464844 C -31.571094512939453 95.40133666992188 -38.85612106323242 69.56221771240234 -2.463066577911377 0.44845259189605713 C 103.47596740722656 89.41747283935547 125.20528411865234 119.18064880371094 173.46864318847656 216.94241333007812" stroke-width="0.0" fill="rgb(91, 188, 8)" opacity="0.7048255"/>
    <path d="M 98.29026794433594 523.8085327148438 C 52.19258499145508 514.0980224609375 44.25203323364258 516.619384765625 -35.0129508972168 563.6718139648438 C -5.055710315704346 629.0802612304688 -15.032327651977539 623.2818603515625 -81.44664001464844 425.3758239746094 C -102.78864288330078 325.54571533203125 -144.38099670410156 253.3877716064453 30.427888870239258 222.135498046875 C 165.25135803222656 391.429931640625 105.35220336914062 492.2469177246094 98.29026794433594 523.8085327148438" stroke-width="0.0" fill="rgb(9, 175, 197)" opacity="0.9948141"/>
    <path d="M 514.5919799804688 55.69148254394531 C 537.7603759765625 110.8495864868164 528.4376220703125 109.56624603271484 437.1260070800781 134.2249755859375 C 362.6884765625 158.70933532714844 382.4810485839844 139.90048217773438 354.94122314453125 93.07523345947266 C 472.54058837890625 54.77893829345703 466.08514404296875 51.115535736083984 481.36395263671875 39.88380813598633 C 504.705078125 24.94898223876953 501.1907958984375 14.01113224029541 514.5919799804688 55.69148254394531" stroke-width="0.0" fill="rgb(138, 239, 56)" opacity="0.49684024"/>
    <path d="M 644.18798828125 270.06024169921875 C 763.562255859375 532.5918579101562 858.756591796875 604.6608276367188 497.6827697753906 612.1942138671875 C 409.3039245605469 357.1267395019531 454.9696960449219 279.6266784667969 380.7006530761719 208.99069213867188 C 367.13677978515625 123.3735122680664 457.4239501953125 153.46714782714844 522.152587890625 151.46914672851562 C 593.7564086914062 138.93994140625 620.5992431640625 139.12237548828125 644.18798828125 270.06024169921875" stroke-width="0.0" fill="rgb(12, 145, 211)" opacity="0.9990205"/>
    <path d="M 213.29637145996094 293.6517028808594 C 9.108017921447754 243.9286651611328 112.04502868652344 326.9223327636719 92.5964584350586 412.2658386230469 C 87.19082641601562 315.2000427246094 63.623069763183594 298.1735534667969 50.56895065307617 218.44932556152344 C 72.69886016845703 221.89552307128906 -64.810302734375 260.8470458984375 237.88800048828125 259.83392333984375 C 159.20285034179688 241.5718994140625 159.83132934570312 325.5762939453125 213.29637145996094 293.6517028808594" stroke-width="0.0" fill="rgb(215, 162, 25)" opacity="0.5002692"/>
    <path d="M 363.8906555175781 392.71697998046875 C 349.6136169433594 430.2420959472656 324.7095031738281 432.0989074707031 214.7624969482422 410.442626953125 C 148.60678100585938 380.997802734375 121.59783935546875 428.7247314453125 66.33062744140625 304.6582336425781 C 53.404335021972656 199.964599609375 83.72142028808594 332.3170166015625 221.66604614257812 337.3611755371094 C 338.58673095703125 374.7324523925781 370.9024353027344 330.5534973144531 363.8906555175781 392.71697998046875" stroke-width="0.0" fill="rgb(255, 181, 0)" opacity="0.9971493"/>
    <path d="M 183.96615600585938 399.91339111328125 C 142.3127899169922 500.8121643066406 142.14480590820312 506.3182678222656 62.911033630371094 500.9720458984375 C -1.9243807792663574 516.6558227539062 24.16978645324707 519.6158447265625 -25.53293800354004 392.1191711425781 C -7.516307353973389 313.542724609375 6.749260425567627 274.2542724609375 34.82536315917969 231.54336547851562 C 98.42585754394531 316.85260009765625 54.8898811340332 365.1734313964844 183.96615600585938 399.91339111328125" stroke-width="0.0" fill="rgb(19, 140, 217)" opacity="0.9695448"/>
    <path d="M 192.6366424560547 535.7396850585938 C 208.46487426757812 587.2064819335938 157.15045166015625 546.5780639648438 164.9365234375 575.3681030273438 C 138.01416015625 556.0103759765625 123.32637786865234 539.9613647460938 61.058677673339844 489.697509765625 C 88.02145385742188 442.98663330078125 108.14643859863281 458.5048522949219 161.95205688476562 469.88818359375 C 196.66647338867188 484.2698059082031 223.7611083984375 489.3299255371094 192.6366424560547 535.7396850585938" stroke-width="0.0" fill="rgb(159, 238, 83)" opacity="0.87009275"/>
    <path d="M 186.26580810546875 580.5659790039062 C 148.28823852539062 594.502197265625 123.04379272460938 571.419189453125 59.493553161621094 571.9261474609375 C 15.669587135314941 574.5308227539062 33.20298767089844 585.5574340820312 -53.619781494140625 530.4891357421875 C -27.258956909179688 458.53521728515625 0.02596302330493927 464.5966796875 94.36355590820312 473.2224426269531 C 150.65530395507812 469.3504638671875 162.44532775878906 477.87322998046875 186.26580810546875 580.5659790039062" stroke-width="0.0" fill="rgb(140, 221, 112)" opacity="0.99991685"/>
    <path d="M 106.23017120361328 468.3024597167969 C 109.63172149658203 575.2726440429688 100.83563995361328 568.8679809570312 43.82521438598633 583.5487060546875 C 8.277915954589844 594.0733642578125 -0.6774357557296753 596.846435546875 -30.53485107421875 508.94512939453125 C -52.2340202331543 445.4374084472656 -46.718746185302734 464.2154541015625 25.939607620239258 450.2235412597656 C 100.86095428466797 447.81842041015625 122.56724548339844 467.0379638671875 106.23017120361328 468.3024597167969" stroke-width="0.0" fill="rgb(136, 220, 110)" opacity="0.9890724"/>
    <path d="M 545.8239135742188 108.96727752685547 C 561.5802001953125 118.69468688964844 519.4461669921875 89.64794158935547 464.1552429199219 118.38754272460938 C 457.3276062011719 86.4773941040039 442.22998046875 142.9244384765625 357.53216552734375 120.95133209228516 C 347.85894775390625 75.46395111083984 406.4689025878906 61.011192321777344 527.7025146484375 37.45498275756836 C 537.3619384765625 94.8359375 527.5958862304688 91.41865539550781 545.8239135742188 108.96727752685547" stroke-width="0.0" fill="rgb(138, 214, 90)" opacity="0.988297"/>
    <path d="M 272.6009521484375 210.6011199951172 C 272.32208251953125 303.4524230957031 243.7794189453125 297.6497497558594 129.88015747070312 276.158447265625 C -19.160877227783203 253.73838806152344 -17.872228622436523 224.184326171875 148.8170928955078 202.07815551757812 C 149.3893280029297 206.50856018066406 114.95270538330078 197.5741729736328 117.48490905761719 79.53338623046875 C 211.27456665039062 84.62057495117188 247.04608154296875 93.673583984375 272.6009521484375 210.6011199951172" stroke-width="0.0" fill="rgb(16, 159, 221)" opacity="0.9961039"/>
    <path d="M 630.0498046875 42.44580078125 C 605.8225708007812 145.78443908691406 622.1277465820312 191.61126708984375 587.0061645507812 170.45494079589844 C 485.0382080078125 178.0418701171875 485.36114501953125 154.11773681640625 478.2139892578125 81.6312484741211 C 466.17041015625 27.651805877685547 492.4684753417969 27.24518585205078 537.0504760742188 23.48129653930664 C 615.8106079101562 29.347267150878906 618.9124145507812 19.584062576293945 630.0498046875 42.44580078125" stroke-width="0.0" fill="rgb(151, 196, 103)" opacity="0.9794334"/>
    <path d="M 549.7840576171875 371.94952392578125 C 519.112548828125 435.82427978515625 502.13739013671875 421.8136901855469 509.9273376464844 434.71697998046875 C 377.06884765625 452.62713623046875 356.78924560546875 479.43365478515625 363.9064636230469 398.40460205078125 C 417.9590759277344 357.46875 446.02227783203125 367.1009826660156 551.3839111328125 338.449462890625 C 583.22265625 312.64666748046875 581.3327026367188 310.4270324707031 549.7840576171875 371.94952392578125" stroke-width="0.0" fill="rgb(200, 113, 110)" opacity="0.93660194"/>
    <path d="M 468.89837646484375 172.9977569580078 C 240.336181640625 204.50424194335938 281.37353515625 170.73843383789062 268.5400390625 300.56011962890625 C 169.02493286132812 301.0611572265625 205.62579345703125 235.58714294433594 216.43453979492188 112.08557891845703 C 209.17039489746094 -24.515350341796875 190.98770141601562 76.92430877685547 333.528564453125 93.07916259765625 C 183.44252014160156 121.68096160888672 424.8252868652344 166.46563720703125 468.89837646484375 172.9977569580078" stroke-width="0.0" fill="rgb(4, 164, 229)" opacity="1.0"/>
    <path d="M 478.23272705078125 407.0532531738281 C 493.4557800292969 430.7142028808594 475.25799560546875 435.14276123046875 366.1346130371094 440.3607482910156 C 342.0567932128906 426.5479431152344 316.0943298339844 449.2396545410156 164.39183044433594 336.6690673828125 C 344.72357177734375 414.5958251953125 433.68890380859375 359.5360107421875 444.6217346191406 386.6854553222656 C 412.4856262207031 381.04791259765625 443.6620788574219 352.90313720703125 478.23272705078125 407.0532531738281" stroke-width="0.0" fill="rgb(236, 182, 0)" opacity="0.5195941"/>
    <path d="M 248.2279815673828 584.0430297851562 C 265.3256530761719 602.601806640625 237.03961181640625 619.7467041015625 247.31918334960938 576.9505615234375 C 210.71597290039062 588.5180053710938 191.65016174316406 596.4404907226562 126.83413696289062 601.0059204101562 C 128.62173461914062 493.27099609375 204.72560119628906 513.253173828125 237.69139099121094 537.0380859375 C 255.53929138183594 541.746826171875 277.6776123046875 553.6732788085938 248.2279815673828 584.0430297851562" stroke-width="0.0" fill="rgb(141, 223, 101)" opacity="1.0"/>
    <path d="M 20.661182403564453 0.9336684346199036 C 17.981689453125 10.93366813659668 10.66118335723877 18.254175186157227 0.6611830592155457 20.93366813659668 C -9.33881664276123 18.254175186157227 -16.659324645996094 10.93366813659668 -19.338817596435547 0.9336684346199036 C -16.659324645996094 -9.06633186340332 -9.33881664276123 -16.386838912963867 0.6611830592155457 -19.06633186340332 C 10.66118335723877 -16.386838912963867 17.981689453125 -9.06633186340332 20.661182403564453 0.9336684346199036" stroke-width="0.0" fill="rgb(39, 46, 93)" opacity="0.88695174" stroke="rgb(18, 128, 46)" stroke-opacity="0.57397515" stroke-linecap="round" stroke-linejoin="round"/>
    <path d="M 601.2050170898438 468.5919494628906 C 504.91619873046875 523.6430053710938 363.8387756347656 452.32196044921875 259.8531494140625 463.632080078125 C 204.12953186035156 470.27545166015625 199.5389862060547 484.9574279785156 128.74659729003906 460.4214172363281 C 132.55580139160156 383.4295349121094 129.47010803222656 424.4009094238281 196.55555725097656 416.1898498535156 C 315.3587341308594 443.4349060058594 407.645263671875 413.545654296875 601.2050170898438 468.5919494628906" stroke-width="0.0" fill="rgb(24, 138, 217)" opacity="0.89705294"/>
    <path d="M 497.414306640625 167.6463165283203 C 724.1356201171875 137.8363037109375 623.97265625 256.9821472167969 485.2016296386719 209.01608276367188 C 376.3286437988281 203.4178924560547 569.7791748046875 184.33514404296875 271.4197998046875 139.30902099609375 C 234.66566467285156 37.51380157470703 334.47064208984375 150.4547576904297 481.6119384765625 126.01222229003906 C 489.1492919921875 144.90264892578125 556.423583984375 179.80841064453125 497.414306640625 167.6463165283203" stroke-width="0.0" fill="rgb(79, 213, 126)" opacity="0.70281917"/>
    <path d="M 391.4401550292969 412.9298400878906 C 370.35894775390625 437.00341796875 342.3059997558594 431.2420349121094 274.2885437011719 427.9353942871094 C 289.53106689453125 409.070068359375 234.7826385498047 447.2608947753906 153.74346923828125 363.65966796875 C 272.4773864746094 377.28277587890625 313.43438720703125 357.4410095214844 343.93914794921875 372.0379943847656 C 371.3519592285156 387.1746826171875 392.4976806640625 376.0342712402344 391.4401550292969 412.9298400878906" stroke-width="0.0" fill="rgb(255, 178, 7)" opacity="0.725195"/>
    <path d="M 163.74896240234375 38.91901779174805 C 153.26657104492188 112.32234954833984 133.37176513671875 119.10144805908203 50.31671905517578 117.87782287597656 C 11.652447700500488 140.3694305419922 23.864681243896484 120.35790252685547 6.685229778289795 20.285112380981445 C 5.002885818481445 -39.9677848815918 35.62102127075195 -24.05103302001953 91.67975616455078 -27.2103214263916 C 148.10150146484375 -22.35161781311035 173.47085571289062 -34.58167266845703 163.74896240234375 38.91901779174805" stroke-width="0.0" fill="rgb(49, 108, 34)" opacity="0.98058915"/>
    <path d="M 464.62677001953125 368.49188232421875 C 528.5517578125 429.65093994140625 547.5867309570312 438.5198669433594 480.08612060546875 436.321533203125 C 435.9211730957031 440.8104248046875 450.5834655761719 402.0457458496094 438.1719970703125 385.1097106933594 C 388.9771728515625 361.71240234375 458.7972412109375 367.8023986816406 554.1493530273438 343.15887451171875 C 585.116455078125 313.87677001953125 595.5648803710938 362.3095703125 464.62677001953125 368.49188232421875" stroke-width="0.0" fill="rgb(243, 134, 58)" opacity="0.7385367"/>
    <path d="M 535.2728881835938 426.2796936035156 C 483.5088195800781 465.73052978515625 473.7654724121094 433.7899475097656 538.326416015625 345.8258972167969 C 504.0794677734375 466.5548095703125 512.4888916015625 445.4865417480469 397.98956298828125 373.46630859375 C 472.0131530761719 355.3114929199219 493.5152587890625 360.9541320800781 570.9984130859375 333.2607727050781 C 583.4741821289062 254.74295043945312 585.8162841796875 379.11822509765625 535.2728881835938 426.2796936035156" stroke-width="0.0" fill="rgb(255, 167, 0)" opacity="1.0"/>
    <path d="M 381.8883361816406 53.58696746826172 C 347.7040710449219 136.7559356689453 364.4302062988281 130.71688842773438 251.2342529296875 129.47694396972656 C 182.71463012695312 113.32907104492188 183.4148406982422 90.17994689941406 199.32363891601562 35.7540283203125 C 214.21817016601562 42.96752166748047 208.00083923339844 39.84321975708008 212.1459197998047 0.5302358269691467 C 252.65420532226562 -2.3941853046417236 279.0599365234375 -2.643270492553711 381.8883361816406 53.58696746826172" stroke-width="0.0" fill="rgb(18, 157, 223)" opacity="0.9765841"/>
    <path d="M 288.51324462890625 210.18304443359375 C 270.9708251953125 230.08718872070312 284.1686706542969 237.88821411132812 266.1037902832031 224.3472900390625 C 277.2923889160156 232.24166870117188 254.41600036621094 223.32861328125 251.88803100585938 207.14369201660156 C 250.5394744873047 201.5026397705078 258.030029296875 191.03729248046875 272.6872863769531 174.84043884277344 C 297.4631042480469 179.44635009765625 313.6396484375 196.32269287109375 288.51324462890625 210.18304443359375" stroke-width="0.0" fill="rgb(4, 0, 0)" opacity="1.0"/>
    <path d="M 580.1032104492188 270.0583801269531 C 594.0992431640625 356.6449279785156 479.02886962890625 367.0472717285156 416.42205810546875 368.1352844238281 C 399.9928283691406 369.8380126953125 397.6757507324219 376.3427734375 436.8924865722656 344.4364318847656 C 443.3564453125 307.1911315917969 394.4151611328125 322.192626953125 461.4587097167969 322.95111083984375 C 423.5816650390625 336.1118469238281 388.6148986816406 281.4834899902344 580.1032104492188 270.0583801269531" stroke-width="0.0" fill="rgb(41, 109, 225)" opacity="0.3544261"/>
    <path d="M 549.0123901367188 452.34283447265625 C 526.684814453125 424.6001892089844 547.0638427734375 402.51275634765625 563.6671142578125 459.13250732421875 C 540.8544311523438 467.0309753417969 511.5821228027344 457.53460693359375 223.9567413330078 447.154296875 C 330.9930419921875 424.0425720214844 444.1092224121094 441.8012390136719 516.3377075195312 433.02978515625 C 583.2427978515625 406.0338134765625 509.9148864746094 437.2113952636719 549.0123901367188 452.34283447265625" stroke-width="0.0" fill="rgb(37, 132, 230)" opacity="0.4511677"/>
    <path d="M 373.1266174316406 259.9302062988281 C 403.6954650878906 327.1285400390625 343.9322814941406 330.4778747558594 291.326171875 312.7675476074219 C 272.9189453125 310.5377502441406 256.3823547363281 311.9530334472656 263.3934020996094 266.0069274902344 C 311.6136779785156 186.36183166503906 257.55419921875 280.34149169921875 302.5268859863281 288.5300598144531 C 337.74591064453125 276.1777648925781 293.0896301269531 243.94247436523438 373.1266174316406 259.9302062988281" stroke-width="0.0" fill="rgb(247, 254, 254)" opacity="0.9963776"/>
    <path d="M 233.8094482421875 172.37315368652344 C 224.93902587890625 189.9022979736328 190.4756317138672 205.13356018066406 138.0550994873047 212.77935791015625 C 66.92176818847656 201.9031982421875 7.678389549255371 292.5989074707031 38.38077926635742 153.98472595214844 C 8.996971130371094 77.79198455810547 157.3108673095703 126.32718658447266 184.38807678222656 129.10842895507812 C 218.9754638671875 143.4051055908203 237.66207885742188 146.3949432373047 233.8094482421875 172.37315368652344" stroke-width="0.0" fill="rgb(134, 215, 87)" opacity="0.97096634"/>
    <path d="M 20.67228126525879 0.26951101422309875 C 17.992788314819336 10.269511222839355 10.672281265258789 17.590017318725586 0.6722815632820129 20.26951026916504 C -9.327718734741211 17.590017318725586 -16.648225784301758 10.269511222839355 -19.32771873474121 0.26951101422309875 C -16.648225784301758 -9.730488777160645 -9.327718734741211 -17.050996780395508 0.6722815632820129 -19.73048973083496 C 10.672281265258789 -17.050996780395508 17.992788314819336 -9.730488777160645 20.67228126525879 0.26951101422309875" stroke-width="0.0" fill="rgb(28, 238, 46)" opacity="0.82199097" stroke="rgb(97, 202, 116)" stroke-opacity="0.17076826" stroke-linecap="round" stroke-linejoin="round"/>
    <path d="M 531.3718872070312 343.0204772949219 C 487.67041015625 377.4242858886719 438.8598327636719 355.5235290527344 421.46441650390625 357.6556091308594 C 444.5978698730469 323.93780517578125 428.8896484375 311.3204650878906 402.1182556152344 289.0086669921875 C 388.72528076171875 303.6807556152344 394.8959045410156 301.90252685546875 415.3854675292969 260.44342041015625 C 453.89764404296875 285.9706726074219 461.22747802734375 302.0211486816406 531.3718872070312 343.0204772949219" stroke-width="0.0" fill="rgb(19, 150, 219)" opacity="0.865079"/>
    <path d="M 488.54290771484375 422.63433837890625 C 494.6202087402344 439.54461669921875 461.6416931152344 438.17510986328125 397.5011291503906 435.2690124511719 C 367.07769775390625 429.0991516113281 352.0402526855469 439.2890930175781 336.6700439453125 373.85186767578125 C 336.5116882324219 370.4926452636719 358.626708984375 391.2596130371094 424.1912536621094 381.02490234375 C 481.3403015136719 360.92523193359375 450.1293029785156 365.5028381347656 488.54290771484375 422.63433837890625" stroke-width="0.0" fill="rgb(247, 188, 0)" opacity="0.91170514"/>
    <path d="M 495.04925537109375 390.1954345703125 C 508.75006103515625 438.5986633300781 494.38848876953125 441.7534484863281 425.1067810058594 438.7945556640625 C 401.5488586425781 434.8890686035156 443.0991516113281 437.2760009765625 438.5397644042969 368.62176513671875 C 357.109375 402.0119323730469 193.81460571289062 348.299072265625 310.2154846191406 409.9517517089844 C 480.33038330078125 428.16864013671875 449.69085693359375 343.20489501953125 495.04925537109375 390.1954345703125" stroke-width="0.0" fill="rgb(250, 179, 0)" opacity="0.5356238"/>
    <path d="M 217.792724609375 146.03005981445312 C 229.5427703857422 172.416748046875 200.87179565429688 198.76657104492188 185.59727478027344 191.012451171875 C 195.3860321044922 112.35308074951172 169.4835205078125 130.281005859375 95.97504425048828 124.30194091796875 C 103.24848937988281 94.84142303466797 134.0426788330078 113.5926513671875 139.53887939453125 136.0170440673828 C 180.269287109375 134.6580352783203 213.37173461914062 130.79583740234375 217.792724609375 146.03005981445312" stroke-width="0.0" fill="rgb(150, 203, 109)" opacity="0.40173107"/>
    <path d="M 379.68060302734375 384.2550354003906 C 410.0732727050781 456.6261291503906 407.9899597167969 430.5238342285156 296.9397277832031 428.48919677734375 C 311.0443420410156 369.92913818359375 324.22747802734375 353.2455139160156 234.3856201171875 366.2000427246094 C 429.76123046875 356.1134948730469 400.3807373046875 382.13323974609375 155.02833557128906 331.1735534667969 C 217.42723083496094 450.14324951171875 360.6336975097656 392.3702392578125 379.68060302734375 384.2550354003906" stroke-width="0.0" fill="rgb(251, 180, 0)" opacity="0.8823203"/>
    <path d="M 642.8289184570312 470.5307312011719 C 631.310791015625 561.5877685546875 622.468505859375 578.1558837890625 591.5101928710938 564.3914794921875 C 558.995361328125 541.407958984375 549.0746459960938 520.3507080078125 552.3424072265625 518.9420166015625 C 542.2534790039062 487.5155944824219 536.1498413085938 442.8242492675781 579.447509765625 443.3974914550781 C 588.6901245117188 465.28167724609375 615.3876953125 457.8345947265625 642.8289184570312 470.5307312011719" stroke-width="0.0" fill="rgb(23, 150, 193)" opacity="0.2116377"/>
    <path d="M 344.62261962890625 185.70863342285156 C 307.50701904296875 194.29881286621094 286.3656005859375 172.2812042236328 272.64154052734375 178.99461364746094 C 251.29371643066406 193.17189025878906 232.25341796875 186.22645568847656 226.3808135986328 119.99889373779297 C 242.7960662841797 120.05956268310547 272.4414367675781 108.41050720214844 282.6496887207031 114.22401428222656 C 310.15887451171875 105.12432861328125 329.9468078613281 114.04532623291016 344.62261962890625 185.70863342285156" stroke-width="0.0" fill="rgb(9, 164, 218)" opacity="0.9841813"/>
    <path d="M 426.6479797363281 201.9546356201172 C 429.8146667480469 215.6332550048828 467.1217346191406 340.7344055175781 329.3221435546875 296.9010314941406 C 294.2552490234375 228.3164825439453 315.01959228515625 262.1270751953125 352.6191101074219 208.1442108154297 C 352.4516906738281 173.62954711914062 330.0395812988281 195.2259063720703 383.2814025878906 191.99996948242188 C 398.77374267578125 174.88861083984375 385.7431640625 220.13323974609375 426.6479797363281 201.9546356201172" stroke-width="0.0" fill="rgb(255, 255, 251)" opacity="1.0"/>
    <path d="M 20.990032196044922 0.305380254983902 C 18.31053924560547 10.305379867553711 10.990031242370605 17.625886917114258 0.9900312423706055 20.30537986755371 C -9.009968757629395 17.625886917114258 -16.330474853515625 10.305379867553711 -19.009967803955078 0.305380254983902 C -16.330474853515625 -9.694620132446289 -9.009968757629395 -17.015127182006836 0.9900312423706055 -19.69462013244629 C 10.990031242370605 -17.015127182006836 18.31053924560547 -9.694620132446289 20.990032196044922 0.305380254983902" stroke-width="0.0" fill="rgb(135, 101, 243)" opacity="0.7894451" stroke="rgb(32, 214, 92)" stroke-opacity="0.6604697" stroke-linecap="round" stroke-linejoin="round"/>
    <path d="M 20.62102699279785 0.6096308827400208 C 17.9415340423584 10.609630584716797 10.621026992797852 17.930137634277344 0.6210273504257202 20.609630584716797 C -9.378973007202148 17.930137634277344 -16.699480056762695 10.609630584716797 -19.37897300720215 0.6096308827400208 C -16.699480056762695 -9.390369415283203 -9.378973007202148 -16.71087646484375 0.6210273504257202 -19.390369415283203 C 10.621026992797852 -16.71087646484375 17.9415340423584 -9.390369415283203 20.62102699279785 0.6096308827400208" stroke-width="0.0" fill="rgb(120, 50, 153)" opacity="0.82400274" stroke="rgb(139, 111, 190)" stroke-opacity="0.82792497" stroke-linecap="round" stroke-linejoin="round"/>
    <path d="M 20.740089416503906 0.947590172290802 C 18.060596466064453 10.947589874267578 10.740089416503906 18.268096923828125 0.7400892972946167 20.947589874267578 C -9.259910583496094 18.268096923828125 -16.58041763305664 10.947589874267578 -19.259910583496094 0.947590172290802 C -16.58041763305664 -9.052410125732422 -9.259910583496094 -16.37291717529297 0.7400892972946167 -19.052410125732422 C 10.740089416503906 -16.37291717529297 18.060596466064453 -9.052410125732422 20.740089416503906 0.947590172290802" stroke-width="0.0" fill="rgb(196, 9, 49)" opacity="0.98044664" stroke="rgb(212, 214, 77)" stroke-opacity="0.4294479" stroke-linecap="round" stroke-linejoin="round"/>
    <path d="M 338.2662048339844 322.2569885253906 C 301.500732421875 296.4859924316406 245.2424774169922 297.39361572265625 275.1365661621094 296.6045227050781 C 263.5476379394531 296.43450927734375 223.8280792236328 297.1197204589844 203.21646118164062 292.0882568359375 C 182.16879272460938 292.8457336425781 236.28836059570312 333.84197998046875 257.0088195800781 330.7189636230469 C 248.47549438476562 304.15521240234375 267.2045593261719 305.0060729980469 338.2662048339844 322.2569885253906" stroke-width="0.0" fill="rgb(243, 124, 0)" opacity="0.75573957"/>
    <path d="M 20.425138473510742 0.5445623993873596 C 17.74564552307129 10.544562339782715 10.425139427185059 17.865070343017578 0.4251389801502228 20.54456329345703 C -9.574860572814941 17.865070343017578 -16.895368576049805 10.544562339782715 -19.574861526489258 0.5445623993873596 C -16.895368576049805 -9.455437660217285 -9.574860572814941 -16.775943756103516 0.4251389801502228 -19.45543670654297 C 10.425139427185059 -16.775943756103516 17.74564552307129 -9.455437660217285 20.425138473510742 0.5445623993873596" stroke-width="0.0" fill="rgb(162, 141, 188)" opacity="0.929532" stroke="rgb(110, 123, 165)" stroke-opacity="0.018358383" stroke-linecap="round" stroke-linejoin="round"/>
    <path d="M 314.0486145019531 247.20143127441406 C 332.76361083984375 239.4910888671875 336.4060974121094 264.7968444824219 314.1181640625 280.2733154296875 C 284.58111572265625 250.3166046142578 344.80169677734375 275.6274108886719 333.1082458496094 233.5540313720703 C 285.6469421386719 278.6177062988281 316.10980224609375 232.65162658691406 327.3805236816406 249.10887145996094 C 320.9880065917969 226.7927703857422 324.5501708984375 231.4708251953125 314.0486145019531 247.20143127441406" stroke-width="0.0" fill="rgb(0, 0, 10)" opacity="0.9837508"/>
    <path d="M 355.1005859375 432.1697998046875 C 207.63885498046875 473.00006103515625 91.1277084350586 432.7763671875 111.05351257324219 431.2373962402344 C 123.98541259765625 418.37506103515625 114.10499572753906 426.2333984375 110.15491485595703 415.8883361816406 C 102.20089721679688 434.5619201660156 127.45638275146484 436.2474060058594 112.62020874023438 423.96173095703125 C 149.05560302734375 390.1816711425781 174.9528045654297 404.2218322753906 355.1005859375 432.1697998046875" stroke-width="0.0" fill="rgb(30, 136, 218)" opacity="0.9533769"/>
    <path d="M 498.1685791015625 172.33392333984375 C 484.2855529785156 195.58367919921875 474.3146667480469 201.11753845214844 552.7029418945312 232.27340698242188 C 394.4451904296875 225.71221923828125 408.6042785644531 227.34320068359375 380.8436584472656 164.04229736328125 C 394.54400634765625 163.3072052001953 408.7680358886719 166.9177703857422 405.0884704589844 162.52529907226562 C 423.51715087890625 165.4655303955078 427.8063659667969 173.78207397460938 498.1685791015625 172.33392333984375" stroke-width="0.0" fill="rgb(23, 149, 223)" opacity="0.9983581"/>
    <path d="M 461.71746826171875 344.7998962402344 C 457.5046081542969 317.161865234375 449.8396301269531 349.04425048828125 453.3304443359375 312.15863037109375 C 419.4316711425781 308.6197204589844 483.3415222167969 332.2715759277344 369.02044677734375 336.3721008300781 C 330.8351745605469 287.9879455566406 422.77020263671875 369.21173095703125 444.1670837402344 307.84271240234375 C 463.7574157714844 305.21600341796875 448.57208251953125 344.94085693359375 461.71746826171875 344.7998962402344" stroke-width="0.0" fill="rgb(165, 89, 68)" opacity="0.2650647"/>
    <path d="M 575.8456420898438 497.11346435546875 C 583.44775390625 548.5630493164062 585.0773315429688 543.8930053710938 568.1983642578125 556.9965209960938 C 551.6937866210938 546.1258544921875 517.7145385742188 543.9070434570312 433.9910583496094 506.3189697265625 C 426.68359375 454.931884765625 478.6690368652344 488.3022766113281 561.6433715820312 473.9547119140625 C 604.3807983398438 471.08941650390625 600.9176635742188 485.7934875488281 575.8456420898438 497.11346435546875" stroke-width="0.0" fill="rgb(17, 148, 199)" opacity="0.16126737"/>
    <path d="M 585.3513793945312 437.83941650390625 C 456.9091796875 440.3478698730469 432.47308349609375 443.0656433105469 445.1551818847656 441.2190246582031 C 467.5483093261719 439.1235046386719 407.81890869140625 431.558837890625 222.32778930664062 441.93963623046875 C 390.71673583984375 481.27301025390625 433.3083801269531 472.578857421875 446.4331359863281 470.275146484375 C 444.0616455078125 469.31982421875 474.2802429199219 472.8204650878906 585.3513793945312 437.83941650390625" stroke-width="0.0" fill="rgb(18, 144, 225)" opacity="0.32321218"/>
    <path d="M 20.647634506225586 0.90841144323349 C 17.968141555786133 10.908411026000977 10.647634506225586 18.228918075561523 0.647634744644165 20.908411026000977 C -9.352365493774414 18.228918075561523 -16.67287254333496 10.908411026000977 -19.352365493774414 0.90841144323349 C -16.67287254333496 -9.091588973999023 -9.352365493774414 -16.41209602355957 0.647634744644165 -19.091588973999023 C 10.647634506225586 -16.41209602355957 17.968141555786133 -9.091588973999023 20.647634506225586 0.90841144323349" stroke-width="0.0" fill="rgb(166, 157, 79)" opacity="0.7272806" stroke="rgb(235, 175, 32)" stroke-opacity="0.35672316" stroke-linecap="round" stroke-linejoin="round"/>
    <path d="M 430.8729248046875 200.29754638671875 C 403.992919921875 242.02667236328125 414.0940856933594 206.12557983398438 374.90228271484375 190.52810668945312 C 368.135986328125 185.1534881591797 351.3072509765625 187.8105010986328 361.0164794921875 185.79959106445312 C 345.06390380859375 189.78024291992188 366.183837890625 182.57041931152344 379.8667297363281 190.12803649902344 C 375.52301025390625 164.12429809570312 424.5685119628906 157.85693359375 430.8729248046875 200.29754638671875" stroke-width="0.0" fill="rgb(0, 0, 4)" opacity="1.0"/>
    <path d="M 625.6755981445312 189.06788635253906 C 616.0086059570312 211.71299743652344 675.6827392578125 270.65521240234375 608.7334594726562 436.77777099609375 C 615.5001831054688 227.9114532470703 580.9886474609375 210.8304901123047 578.2556762695312 161.5660400390625 C 592.485107421875 179.62985229492188 574.6736450195312 173.51715087890625 578.4666137695312 128.18820190429688 C 613.0640869140625 172.59881591796875 615.2206420898438 183.9910430908203 625.6755981445312 189.06788635253906" stroke-width="0.0" fill="rgb(122, 171, 81)" opacity="0.12136434"/>
    <path d="M 20.942676544189453 0.5004721879959106 C 18.26318359375 10.500472068786621 10.942676544189453 17.820980072021484 0.9426762461662292 20.500473022460938 C -9.057323455810547 17.820980072021484 -16.377830505371094 10.500472068786621 -19.057323455810547 0.5004721879959106 C -16.377830505371094 -9.499527931213379 -9.057323455810547 -16.82003402709961 0.9426762461662292 -19.499526977539062 C 10.942676544189453 -16.82003402709961 18.26318359375 -9.499527931213379 20.942676544189453 0.5004721879959106" stroke-width="0.0" fill="rgb(241, 33, 197)" opacity="0.9800779" stroke="rgb(183, 192, 55)" stroke-opacity="0.44303998" stroke-linecap="round" stroke-linejoin="round"/>
    <path d="M 354.2173767089844 283.4079895019531 C 348.6952819824219 277.51568603515625 349.38726806640625 276.3885803222656 343.3560791015625 283.9845886230469 C 378.307861328125 278.28668212890625 348.21783447265625 276.2810974121094 333.1195983886719 276.56512451171875 C 331.7857666015625 289.5899963378906 360.86358642578125 294.46551513671875 363.13507080078125 273.6343078613281 C 349.6687316894531 275.8262939453125 344.0202331542969 284.8757629394531 354.2173767089844 283.4079895019531" stroke-width="0.0" fill="rgb(0, 0, 27)" opacity="1.0"/>
    <path d="M 475.27215576171875 311.90753173828125 C 468.060302734375 302.6372985839844 454.77264404296875 335.70806884765625 454.91827392578125 303.3696594238281 C 487.0592956542969 324.71575927734375 468.0547790527344 306.7373962402344 458.1366271972656 296.3829650878906 C 447.62158203125 288.79840087890625 462.893798828125 293.61102294921875 451.3468017578125 361.5808410644531 C 430.3675537109375 310.7035217285156 500.1095886230469 284.32794189453125 475.27215576171875 311.90753173828125" stroke-width="0.0" fill="rgb(29, 183, 167)" opacity="0.2779257"/>
    <path d="M 645.2362670898438 550.5823974609375 C 605.3204956054688 597.0 598.0 604.3204956054688 586.8856811523438 608.46142578125 C 559.0770263671875 623.5543823242188 455.07611083984375 715.4104614257812 259.8269348144531 581.0738525390625 C 618.013427734375 558.9722290039062 524.38330078125 629.6978759765625 586.8907470703125 392.6775817871094 C 686.3919067382812 481.9644775390625 649.9170532226562 532.3975830078125 645.2362670898438 550.5823974609375" stroke-width="0.0" fill="rgb(8, 152, 189)" opacity="0.11904118"/>
    <path d="M 358.3046875 246.8453369140625 C 362.66156005859375 276.1194152832031 419.7508239746094 299.7115173339844 406.7077331542969 250.2734375 C 381.9205627441406 222.521484375 356.5791015625 209.71250915527344 355.7860412597656 247.9504852294922 C 393.1246643066406 261.3478088378906 383.2317810058594 218.8241729736328 373.50396728515625 249.57460021972656 C 384.97833251953125 244.44546508789062 391.9703369140625 268.2294921875 358.3046875 246.8453369140625" stroke-width="0.0" fill="rgb(0, 0, 10)" opacity="1.0"/>
    <path d="M 20.86846160888672 0.490878701210022 C 18.188968658447266 10.49087905883789 10.868461608886719 17.811386108398438 0.8684611916542053 20.49087905883789 C -9.131538391113281 17.811386108398438 -16.452045440673828 10.49087905883789 -19.13153839111328 0.490878701210022 C -16.452045440673828 -9.50912094116211 -9.131538391113281 -16.829627990722656 0.8684611916542053 -19.50912094116211 C 10.868461608886719 -16.829627990722656 18.188968658447266 -9.50912094116211 20.86846160888672 0.490878701210022" stroke-width="0.0" fill="rgb(230, 39, 93)" opacity="0.74781847" stroke="rgb(246, 233, 42)" stroke-opacity="0.12115546" stroke-linecap="round" stroke-linejoin="round"/>
    <path d="M 381.09442138671875 304.27020263671875 C 422.32672119140625 301.3341064453125 413.319580078125 297.8127746582031 439.9188537597656 316.4110107421875 C 428.972900390625 309.6797790527344 411.7945556640625 286.7643737792969 372.84735107421875 311.8663330078125 C 381.6040344238281 298.71319580078125 405.8421325683594 302.4071350097656 413.3528747558594 290.0858154296875 C 411.8871154785156 283.90252685546875 393.12432861328125 308.9402160644531 381.09442138671875 304.27020263671875" stroke-width="0.0" fill="rgb(196, 77, 154)" opacity="0.52069986"/>
    <path d="M 20.56283950805664 0.30383551120758057 C 17.883346557617188 10.30383586883545 10.56283950805664 17.62434196472168 0.5628395676612854 20.303834915161133 C -9.43716049194336 17.62434196472168 -16.757667541503906 10.30383586883545 -19.43716049194336 0.30383551120758057 C -16.757667541503906 -9.69616413116455 -9.43716049194336 -17.016672134399414 0.5628395676612854 -19.696165084838867 C 10.56283950805664 -17.016672134399414 17.883346557617188 -9.69616413116455 20.56283950805664 0.30383551120758057" stroke-width="0.0" fill="rgb(58, 204, 217)" opacity="0.8248212" stroke="rgb(249, 51, 54)" stroke-opacity="0.29186717" stroke-linecap="round" stroke-linejoin="round"/>
    <path d="M 20.002676010131836 0.45050370693206787 C 17.323183059692383 10.4505033493042 10.002676010131836 17.771011352539062 0.002675722585991025 20.450504302978516 C -9.997323989868164 17.771011352539062 -17.31783103942871 10.4505033493042 -19.997323989868164 0.45050370693206787 C -17.31783103942871 -9.5494966506958 -9.997323989868164 -16.87000274658203 0.002675722585991025 -19.549495697021484 C 10.002676010131836 -16.87000274658203 17.323183059692383 -9.5494966506958 20.002676010131836 0.45050370693206787" stroke-width="0.0" fill="rgb(128, 220, 61)" opacity="0.8069214" stroke="rgb(190, 140, 208)" stroke-opacity="0.95959216" stroke-linecap="round" stroke-linejoin="round"/>
    <path d="M 20.091327667236328 0.9619110822677612 C 17.411834716796875 10.96191120147705 10.091326713562012 18.28241729736328 0.09132688492536545 20.961910247802734 C -9.908673286437988 18.28241729736328 -17.22917938232422 10.96191120147705 -19.908672332763672 0.9619110822677612 C -17.22917938232422 -9.03808879852295 -9.908673286437988 -16.358596801757812 0.09132688492536545 -19.038089752197266 C 10.091326713562012 -16.358596801757812 17.411834716796875 -9.03808879852295 20.091327667236328 0.9619110822677612" stroke-width="0.0" fill="rgb(252, 196, 53)" opacity="0.7700874" stroke="rgb(104, 198, 196)" stroke-opacity="0.22810037" stroke-linecap="round" stroke-linejoin="round"/>
    <path d="M 446.3672180175781 330.653564453125 C 409.27178955078125 328.74407958984375 401.130859375 339.0006408691406 454.2397766113281 344.9527282714844 C 558.6023559570312 364.0215759277344 538.9965209960938 341.22955322265625 461.6606750488281 336.45208740234375 C 474.4674987792969 311.8618469238281 456.81634521484375 319.9222106933594 467.35809326171875 339.1632995605469 C 445.9734191894531 327.2707824707031 417.7745056152344 331.7150573730469 446.3672180175781 330.653564453125" stroke-width="0.0" fill="rgb(253, 151, 81)" opacity="0.97864586"/>
    <path d="M 137.8617706298828 71.67810821533203 C 113.80729675292969 77.46733093261719 118.0143051147461 108.70909118652344 94.86295318603516 122.54461669921875 C 47.09968185424805 111.26863098144531 56.68559265136719 115.06238555908203 51.2766227722168 112.88735961914062 C 88.90837097167969 115.28279113769531 109.75118255615234 119.51165771484375 132.55450439453125 107.85138702392578 C 119.34969329833984 92.40803527832031 156.8253173828125 80.61182403564453 137.8617706298828 71.67810821533203" stroke-width="0.0" fill="rgb(31, 155, 58)" opacity="0.009920412"/>
    <path d="M 140.70286560058594 82.65650939941406 C 142.39456176757812 132.808349609375 121.8611831665039 102.83177185058594 55.95405197143555 111.54206085205078 C 19.000017166137695 125.44247436523438 19.142065048217773 137.1527862548828 15.414835929870605 89.8075180053711 C 39.43150329589844 102.88737487792969 59.83763122558594 96.7848892211914 81.39451599121094 97.80751037597656 C 69.78274536132812 92.48464965820312 87.92206573486328 96.01854705810547 140.70286560058594 82.65650939941406" stroke-width="0.0" fill="rgb(42, 113, 39)" opacity="0.9117326"/>
    <path d="M 202.87010192871094 351.7415466308594 C 230.98397827148438 335.25299072265625 212.75425720214844 388.32281494140625 198.72955322265625 341.2378845214844 C 150.08306884765625 336.72161865234375 127.92327117919922 347.8299865722656 106.4845199584961 326.8235778808594 C 129.5228729248047 329.88592529296875 135.089111328125 332.6172790527344 131.18629455566406 319.939208984375 C 131.94735717773438 356.6462097167969 138.35145568847656 344.0622863769531 202.87010192871094 351.7415466308594" stroke-width="0.0" fill="rgb(255, 154, 77)" opacity="0.17155167"/>
    <path d="M 699.7444458007812 309.59405517578125 C 410.32568359375 372.41363525390625 451.3188171386719 315.7131042480469 452.1383361816406 314.4183654785156 C 368.91058349609375 288.7454833984375 391.95135498046875 308.7857360839844 406.3740539550781 301.4900207519531 C 472.6775817871094 260.0653381347656 383.54510498046875 213.7784423828125 426.866455078125 215.00662231445312 C 480.06072998046875 222.80953979492188 588.2161865234375 149.5181427001953 699.7444458007812 309.59405517578125" stroke-width="0.0" fill="rgb(10, 160, 211)" opacity="0.99548155"/>
    <path d="M 229.42941284179688 308.0158386230469 C 223.13638305664062 351.8177490234375 221.05780029296875 333.9982604980469 215.1996307373047 337.3620300292969 C 180.67811584472656 320.1577453613281 157.80601501464844 313.628662109375 211.22056579589844 308.0529479980469 C 63.549129486083984 288.8406066894531 135.51292419433594 330.9222717285156 220.59446716308594 310.4526062011719 C 255.60169982910156 332.9085998535156 212.9670867919922 283.8020324707031 229.42941284179688 308.0158386230469" stroke-width="0.0" fill="rgb(37, 92, 0)" opacity="0.1870316"/>
    <path d="M 75.99202728271484 222.88534545898438 C 69.8836898803711 283.0654296875 41.2171630859375 287.9084167480469 -6.1329755783081055 295.8446960449219 C -18.752870559692383 325.5041809082031 -37.466121673583984 293.6024169921875 -25.812171936035156 232.19512939453125 C -14.207955360412598 239.0001983642578 -5.52753210067749 217.73719787597656 -7.678229331970215 219.07456970214844 C 51.053749084472656 228.6436309814453 92.8485336303711 215.19830322265625 75.99202728271484 222.88534545898438" stroke-width="0.0" fill="rgb(11, 154, 221)" opacity="0.95361686"/>
    <path d="M 629.0263061523438 278.8146057128906 C 615.9458618164062 296.1702880859375 614.14599609375 295.99615478515625 621.9915161132812 300.37103271484375 C 614.0511474609375 313.18634033203125 612.034912109375 320.1479187011719 602.8668212890625 323.6737365722656 C 600.2007446289062 273.6142578125 604.4343872070312 236.42259216308594 605.5980224609375 226.51754760742188 C 637.8048706054688 230.90740966796875 633.8204345703125 249.7617645263672 629.0263061523438 278.8146057128906" stroke-width="0.0" fill="rgb(0, 116, 159)" opacity="0.67143923"/>
    <path d="M 285.2559509277344 567.32421875 C 309.39520263671875 646.52880859375 284.9461364746094 627.9857788085938 234.01901245117188 649.4773559570312 C 216.75218200683594 653.0848388671875 213.3252410888672 641.6077270507812 219.7251434326172 600.6979370117188 C 198.07965087890625 599.7223510742188 210.05264282226562 587.82666015625 234.62173461914062 583.3250122070312 C 251.29798889160156 570.7411499023438 273.64617919921875 549.1317749023438 285.2559509277344 567.32421875" stroke-width="0.0" fill="rgb(18, 143, 215)" opacity="0.99555695"/>
    <path d="M 20.83595848083496 0.5751991271972656 C 18.156465530395508 10.575199127197266 10.835958480834961 17.895706176757812 0.8359586000442505 20.575199127197266 C -9.164041519165039 17.895706176757812 -16.484548568725586 10.575199127197266 -19.16404151916504 0.5751991271972656 C -16.484548568725586 -9.424800872802734 -9.164041519165039 -16.74530792236328 0.8359586000442505 -19.424800872802734 C 10.835958480834961 -16.74530792236328 18.156465530395508 -9.424800872802734 20.83595848083496 0.5751991271972656" stroke-width="0.0" fill="rgb(235, 151, 96)" opacity="0.8815214" stroke="rgb(142, 124, 128)" stroke-opacity="0.17641191" stroke-linecap="round" stroke-linejoin="round"/>
    <path d="M 377.224853515625 307.8865051269531 C 364.7814025878906 327.1948547363281 360.734619140625 306.63128662109375 376.8482971191406 310.42620849609375 C 377.52130126953125 293.9317932128906 365.2934265136719 296.4191589355469 348.66949462890625 301.87188720703125 C 334.65618896484375 295.8660583496094 304.0940246582031 296.2277526855469 370.0482482910156 295.53118896484375 C 378.9811096191406 313.295166015625 382.630126953125 316.4707336425781 377.224853515625 307.8865051269531" stroke-width="0.0" fill="rgb(180, 62, 62)" opacity="0.42304823"/>
    <path d="M 362.0498046875 351.6925964355469 C 373.3548889160156 326.68096923828125 390.44915771484375 340.76641845703125 392.30853271484375 324.9707946777344 C 346.0496520996094 308.8941955566406 303.428466796875 318.85931396484375 345.690673828125 328.52703857421875 C 388.9560546875 333.2795104980469 353.0492858886719 311.5340576171875 356.4534606933594 321.0565185546875 C 366.3614807128906 311.54730224609375 354.341552734375 319.73773193359375 362.0498046875 351.6925964355469" stroke-width="0.0" fill="rgb(241, 121, 13)" opacity="0.5609646"/>
    <path d="M 76.79359436035156 256.0245666503906 C 66.7602767944336 237.21063232421875 97.95528411865234 263.0696716308594 49.140838623046875 263.2819519042969 C 45.27297592163086 246.33604431152344 29.39545249938965 256.10113525390625 10.609678268432617 244.5382080078125 C 29.337888717651367 234.60121154785156 51.554813385009766 229.18893432617188 92.46391296386719 223.4812774658203 C 92.31582641601562 258.0790710449219 105.28962707519531 278.1651611328125 76.79359436035156 256.0245666503906" stroke-width="0.0" fill="rgb(5, 149, 225)" opacity="0.110218585"/>
    <path d="M 360.8938293457031 22.5078182220459 C 265.4173583984375 28.006105422973633 231.11080932617188 23.136802673339844 275.07373046875 13.789270401000977 C 271.0879821777344 31.9821834564209 229.8188018798828 19.973691940307617 -41.941978454589844 11.00721549987793 C 145.91590881347656 -98.43754577636719 221.54998779296875 -28.564292907714844 258.1902160644531 -17.344295501708984 C 276.310302734375 -17.411026000976562 321.0160827636719 -43.262149810791016 360.8938293457031 22.5078182220459" stroke-width="0.0" fill="rgb(34, 120, 111)" opacity="0.011316364"/>
    <path d="M 20.826631546020508 0.07140983641147614 C 18.147138595581055 10.071410179138184 10.826631546020508 17.391916275024414 0.8266311883926392 20.071409225463867 C -9.173368453979492 17.391916275024414 -16.49387550354004 10.071410179138184 -19.173368453979492 0.07140983641147614 C -16.49387550354004 -9.928589820861816 -9.173368453979492 -17.24909782409668 0.8266311883926392 -19.928590774536133 C 10.826631546020508 -17.24909782409668 18.147138595581055 -9.928589820861816 20.826631546020508 0.07140983641147614" stroke-width="0.0" fill="rgb(151, 213, 11)" opacity="0.96692467" stroke="rgb(2, 51, 244)" stroke-opacity="0.61340183" stroke-linecap="round" stroke-linejoin="round"/>
    <path d="M 20.916072845458984 0.18148913979530334 C 18.23657989501953 10.181488990783691 10.916072845458984 17.501996994018555 0.9160727858543396 20.181489944458008 C -9.083927154541016 17.501996994018555 -16.404434204101562 10.181488990783691 -19.083927154541016 0.18148913979530334 C -16.404434204101562 -9.818511009216309 -9.083927154541016 -17.13901710510254 0.9160727858543396 -19.818510055541992 C 10.916072845458984 -17.13901710510254 18.23657989501953 -9.818511009216309 20.916072845458984 0.18148913979530334" stroke-width="0.0" fill="rgb(2, 112, 11)" opacity="0.8015662" stroke="rgb(120, 156, 221)" stroke-opacity="0.6619016" stroke-linecap="round" stroke-linejoin="round"/>
    <path d="M 20.872718811035156 0.5740641951560974 C 18.193225860595703 10.574064254760742 10.872719764709473 17.89457130432129 0.8727197647094727 20.574064254760742 C -9.127280235290527 17.89457130432129 -16.44778823852539 10.574064254760742 -19.127281188964844 0.5740641951560974 C -16.44778823852539 -9.425935745239258 -9.127280235290527 -16.746442794799805 0.8727197647094727 -19.425935745239258 C 10.872719764709473 -16.746442794799805 18.193225860595703 -9.425935745239258 20.872718811035156 0.5740641951560974" stroke-width="0.0" fill="rgb(21, 231, 49)" opacity="0.8346554" stroke="rgb(152, 18, 57)" stroke-opacity="0.93149036" stroke-linecap="round" stroke-linejoin="round"/>
    <path d="M 20.99391746520996 0.1184515655040741 C 18.314424514770508 10.118451118469238 10.993918418884277 17.4389591217041 0.9939181208610535 20.118452072143555 C -9.006081581115723 17.4389591217041 -16.326589584350586 10.118451118469238 -19.00608253479004 0.1184515655040741 C -16.326589584350586 -9.881548881530762 -9.006081581115723 -17.202054977416992 0.9939181208610535 -19.881547927856445 C 10.993918418884277 -17.202054977416992 18.314424514770508 -9.881548881530762 20.99391746520996 0.1184515655040741" stroke-width="0.0" fill="rgb(44, 96, 232)" opacity="0.82358396" stroke="rgb(238, 12, 53)" stroke-opacity="0.5658886" stroke-linecap="round" stroke-linejoin="round"/>
    <path d="M 449.6366271972656 336.2787780761719 C 391.6877136230469 337.79736328125 373.59539794921875 332.5024108886719 379.23101806640625 304.6647033691406 C 412.9300842285156 304.8218078613281 407.7669982910156 287.68475341796875 366.2576599121094 316.5610656738281 C 414.4207763671875 332.11004638671875 425.67608642578125 318.1339111328125 413.86895751953125 324.7593688964844 C 392.63177490234375 318.4361572265625 409.090087890625 331.9636535644531 449.6366271972656 336.2787780761719" stroke-width="0.0" fill="rgb(209, 11, 61)" opacity="0.11305248"/>
    <path d="M 20.469396591186523 0.44046878814697266 C 17.78990364074707 10.440468788146973 10.469396591186523 17.760974884033203 0.4693969488143921 20.440467834472656 C -9.530603408813477 17.760974884033203 -16.851110458374023 10.440468788146973 -19.530603408813477 0.44046878814697266 C -16.851110458374023 -9.559531211853027 -9.530603408813477 -16.88003921508789 0.4693969488143921 -19.559532165527344 C 10.469396591186523 -16.88003921508789 17.78990364074707 -9.559531211853027 20.469396591186523 0.44046878814697266" stroke-width="0.0" fill="rgb(231, 199, 4)" opacity="0.8883876" stroke="rgb(70, 231, 161)" stroke-opacity="0.071906716" stroke-linecap="round" stroke-linejoin="round"/>
    <path d="M 20.207788467407227 0.2110251933336258 C 17.528295516967773 10.21102523803711 10.20778751373291 17.531532287597656 0.2077879011631012 20.21102523803711 C -9.79221248626709 17.531532287597656 -17.11271858215332 10.21102523803711 -19.792211532592773 0.2110251933336258 C -17.11271858215332 -9.78897476196289 -9.79221248626709 -17.109481811523438 0.2077879011631012 -19.78897476196289 C 10.20778751373291 -17.109481811523438 17.528295516967773 -9.78897476196289 20.207788467407227 0.2110251933336258" stroke-width="0.0" fill="rgb(120, 40, 7)" opacity="0.77221376" stroke="rgb(61, 21, 236)" stroke-opacity="0.5797371" stroke-linecap="round" stroke-linejoin="round"/>
    <path d="M 217.09173583984375 334.56683349609375 C 187.8646240234375 332.13104248046875 208.9331512451172 323.2840881347656 200.58087158203125 321.6772155761719 C 212.5462646484375 309.19024658203125 205.6317596435547 358.7597351074219 190.0275115966797 315.8873291015625 C 235.63137817382812 361.69549560546875 151.89794921875 313.9891357421875 203.83485412597656 296.1107482910156 C 244.10195922851562 261.8628845214844 203.6971435546875 334.0364990234375 217.09173583984375 334.56683349609375" stroke-width="0.0" fill="rgb(96, 52, 0)" opacity="0.72919405"/>
    <path d="M 20.76444435119629 0.6063176393508911 C 18.084951400756836 10.606317520141602 10.764443397521973 17.92682456970215 0.7644434571266174 20.6063175201416 C -9.235556602478027 17.92682456970215 -16.556062698364258 10.606317520141602 -19.23555564880371 0.6063176393508911 C -16.556062698364258 -9.393682479858398 -9.235556602478027 -16.714189529418945 0.7644434571266174 -19.3936824798584 C 10.764443397521973 -16.714189529418945 18.084951400756836 -9.393682479858398 20.76444435119629 0.6063176393508911" stroke-width="0.0" fill="rgb(156, 10, 102)" opacity="0.90942115" stroke="rgb(162, 81, 23)" stroke-opacity="0.42711246" stroke-linecap="round" stroke-linejoin="round"/>
    <path d="M 447.6739196777344 138.6958770751953 C 441.65093994140625 121.18814849853516 412.0544738769531 156.21926879882812 410.16229248046875 111.2073745727539 C 455.6964416503906 122.2269287109375 441.0379943847656 130.1083221435547 435.9494934082031 98.46421813964844 C 482.8641052246094 110.28665161132812 481.7663879394531 126.38270568847656 445.1716613769531 117.55289459228516 C 452.2519226074219 114.52686309814453 448.1922912597656 137.859619140625 447.6739196777344 138.6958770751953" stroke-width="0.0" fill="rgb(152, 198, 131)" opacity="0.2010422"/>
    <path d="M 20.470500946044922 0.6515094637870789 C 17.79100799560547 10.651509284973145 10.470500946044922 17.972017288208008 0.4705008268356323 20.65151023864746 C -9.529499053955078 17.972017288208008 -16.850006103515625 10.651509284973145 -19.529499053955078 0.6515094637870789 C -16.850006103515625 -9.348490715026855 -9.529499053955078 -16.668996810913086 0.4705008268356323 -19.34848976135254 C 10.470500946044922 -16.668996810913086 17.79100799560547 -9.348490715026855 20.470500946044922 0.6515094637870789" stroke-width="0.0" fill="rgb(62, 33, 77)" opacity="0.9916161" stroke="rgb(219, 28, 241)" stroke-opacity="0.42335802" stroke-linecap="round" stroke-linejoin="round"/>
    <path d="M 20.950786590576172 0.9995723962783813 C 18.27129364013672 10.99957275390625 10.950786590576172 18.320079803466797 0.950786292552948 20.99957275390625 C -9.049213409423828 18.320079803466797 -16.369720458984375 10.99957275390625 -19.049213409423828 0.9995723962783813 C -16.369720458984375 -9.00042724609375 -9.049213409423828 -16.320934295654297 0.950786292552948 -19.00042724609375 C 10.950786590576172 -16.320934295654297 18.27129364013672 -9.00042724609375 20.950786590576172 0.9995723962783813" stroke-width="0.0" fill="rgb(207, 138, 33)" opacity="0.97973317" stroke="rgb(241, 94, 34)" stroke-opacity="0.51839966" stroke-linecap="round" stroke-linejoin="round"/>
    <path d="M 20.040231704711914 0.7562688589096069 C 17.36073875427246 10.756268501281738 10.040231704711914 18.0767765045166 0.040231674909591675 20.756269454956055 C -9.959768295288086 18.0767765045166 -17.280275344848633 10.756268501281738 -19.959768295288086 0.7562688589096069 C -17.280275344848633 -9.243731498718262 -9.959768295288086 -16.564237594604492 0.040231674909591675 -19.243730545043945 C 10.040231704711914 -16.564237594604492 17.36073875427246 -9.243731498718262 20.040231704711914 0.7562688589096069" stroke-width="0.0" fill="rgb(68, 129, 37)" opacity="0.8697242" stroke="rgb(182, 239, 232)" stroke-opacity="0.9460756" stroke-linecap="round" stroke-linejoin="round"/>
    <path d="M 465.9764099121094 361.7750549316406 C 468.1059265136719 436.35968017578125 484.25592041015625 430.5301208496094 429.2471923828125 433.65576171875 C 418.5665283203125 414.31964111328125 416.0552673339844 421.1488037109375 406.0853271484375 379.4994201660156 C 416.3380126953125 350.49920654296875 426.9727478027344 358.1804504394531 447.88287353515625 360.0112609863281 C 482.156982421875 360.7792053222656 496.5810546875 354.0445556640625 465.9764099121094 361.7750549316406" stroke-width="0.0" fill="rgb(253, 177, 0)" opacity="0.79739755"/>
    <path d="M 20.165922164916992 0.3076118230819702 C 17.48642921447754 10.307611465454102 10.165923118591309 17.62811851501465 0.16592279076576233 20.3076114654541 C -9.834076881408691 17.62811851501465 -17.154584884643555 10.307611465454102 -19.834077835083008 0.3076118230819702 C -17.154584884643555 -9.692388534545898 -9.834076881408691 -17.012895584106445 0.16592279076576233 -19.6923885345459 C 10.165923118591309 -17.012895584106445 17.48642921447754 -9.692388534545898 20.165922164916992 0.3076118230819702" stroke-width="0.0" fill="rgb(66, 17, 7)" opacity="0.96444577" stroke="rgb(106, 183, 234)" stroke-opacity="0.40804046" stroke-linecap="round" stroke-linejoin="round"/>
    <path d="M 20.184364318847656 0.051376719027757645 C 17.504871368408203 10.051376342773438 10.18436336517334 17.371883392333984 0.18436366319656372 20.051376342773438 C -9.81563663482666 17.371883392333984 -17.13614273071289 10.051376342773438 -19.815635681152344 0.051376719027757645 C -17.13614273071289 -9.948623657226562 -9.81563663482666 -17.26913070678711 0.18436366319656372 -19.948623657226562 C 10.18436336517334 -17.26913070678711 17.504871368408203 -9.948623657226562 20.184364318847656 0.051376719027757645" stroke-width="0.0" fill="rgb(231, 244, 19)" opacity="0.7910093" stroke="rgb(100, 45, 147)" stroke-opacity="0.9579794" stroke-linecap="round" stroke-linejoin="round"/>
    <path d="M 164.8520050048828 323.4408874511719 C 125.39484405517578 320.62811279296875 109.77417755126953 315.8641662597656 119.38340759277344 296.9606628417969 C 147.959716796875 304.9546813964844 126.81341552734375 328.666748046875 119.76789093017578 278.3984375 C 191.58633422851562 283.1885070800781 202.00152587890625 289.0718078613281 116.96223449707031 298.45635986328125 C 125.93687438964844 312.3227844238281 146.6105194091797 316.0983581542969 164.8520050048828 323.4408874511719" stroke-width="0.0" fill="rgb(216, 52, 0)" opacity="0.025895657"/>
    <path d="M 242.04273986816406 359.38531494140625 C 271.96441650390625 293.1967468261719 253.50355529785156 294.279052734375 249.90863037109375 300.0624084472656 C 256.0708923339844 293.3500061035156 252.02947998046875 293.31524658203125 269.3766784667969 292.3027038574219 C 238.30796813964844 294.2314453125 213.59263610839844 289.29644775390625 229.77346801757812 309.6348876953125 C 220.48223876953125 295.2254943847656 219.23843383789062 276.05145263671875 242.04273986816406 359.38531494140625" stroke-width="0.0" fill="rgb(172, 110, 5)" opacity="0.2555216"/>
    <path d="M 20.941062927246094 0.4777292013168335 C 18.26156997680664 10.477728843688965 10.94106388092041 17.798236846923828 0.9410635828971863 20.47772979736328 C -9.05893611907959 17.798236846923828 -16.379444122314453 10.477728843688965 -19.058937072753906 0.4777292013168335 C -16.379444122314453 -9.522271156311035 -9.05893611907959 -16.842777252197266 0.9410635828971863 -19.52227020263672 C 10.94106388092041 -16.842777252197266 18.26156997680664 -9.522271156311035 20.941062927246094 0.4777292013168335" stroke-width="0.0" fill="rgb(128, 21, 158)" opacity="0.9567776" stroke="rgb(110, 49, 48)" stroke-opacity="0.7687642" stroke-linecap="round" stroke-linejoin="round"/>
    <path d="M 20.822114944458008 0.4007074534893036 C 18.142621994018555 10.400707244873047 10.822115898132324 17.721214294433594 0.8221156597137451 20.400707244873047 C -9.177884101867676 17.721214294433594 -16.49839210510254 10.400707244873047 -19.177885055541992 0.4007074534893036 C -16.49839210510254 -9.599292755126953 -9.177884101867676 -16.9197998046875 0.8221156597137451 -19.599292755126953 C 10.822115898132324 -16.9197998046875 18.142621994018555 -9.599292755126953 20.822114944458008 0.4007074534893036" stroke-width="0.0" fill="rgb(67, 195, 52)" opacity="0.8396461" stroke="rgb(240, 237, 52)" stroke-opacity="0.35821903" stroke-linecap="round" stroke-linejoin="round"/>
    <path d="M 20.660429000854492 0.15705709159374237 C 17.98093605041504 10.15705680847168 10.660428047180176 17.477563858032227 0.6604281663894653 20.15705680847168 C -9.339571952819824 17.477563858032227 -16.660078048706055 10.15705680847168 -19.339570999145508 0.15705709159374237 C -16.660078048706055 -9.84294319152832 -9.339571952819824 -17.163450241088867 0.6604281663894653 -19.84294319152832 C 10.660428047180176 -17.163450241088867 17.98093605041504 -9.84294319152832 20.660429000854492 0.15705709159374237" stroke-width="0.0" fill="rgb(170, 232, 88)" opacity="0.7116398" stroke="rgb(47, 211, 195)" stroke-opacity="0.35064268" stroke-linecap="round" stroke-linejoin="round"/>
    <path d="M 20.074081420898438 0.6294457316398621 C 17.394588470458984 10.629446029663086 10.074082374572754 17.949953079223633 0.07408217340707779 20.629446029663086 C -9.925917625427246 17.949953079223633 -17.24642562866211 10.629446029663086 -19.925918579101562 0.6294457316398621 C -17.24642562866211 -9.370553970336914 -9.925917625427246 -16.69106101989746 0.07408217340707779 -19.370553970336914 C 10.074082374572754 -16.69106101989746 17.394588470458984 -9.370553970336914 20.074081420898438 0.6294457316398621" stroke-width="0.0" fill="rgb(38, 130, 117)" opacity="0.97900164" stroke="rgb(97, 125, 228)" stroke-opacity="0.8067078" stroke-linecap="round" stroke-linejoin="round"/>
    <path d="M 20.05360984802246 0.14919757843017578 C 17.374116897583008 10.149197578430176 10.053608894348145 17.469703674316406 0.05360907316207886 20.14919662475586 C -9.946391105651855 17.469703674316406 -17.266897201538086 10.149197578430176 -19.94639015197754 0.14919757843017578 C -17.266897201538086 -9.850802421569824 -9.946391105651855 -17.171310424804688 0.05360907316207886 -19.85080337524414 C 10.053608894348145 -17.171310424804688 17.374116897583008 -9.850802421569824 20.05360984802246 0.14919757843017578" stroke-width="0.0" fill="rgb(0, 81, 107)" opacity="0.7598715" stroke="rgb(9, 164, 66)" stroke-opacity="0.05234718" stroke-linecap="round" stroke-linejoin="round"/>
    <path d="M 20.49379539489746 0.08044185489416122 C 17.814302444458008 10.08044147491455 10.493795394897461 17.400949478149414 0.4937952160835266 20.080442428588867 C -9.506204605102539 17.400949478149414 -16.826711654663086 10.08044147491455 -19.50620460510254 0.08044185489416122 C -16.826711654663086 -9.91955852508545 -9.506204605102539 -17.24006462097168 0.4937952160835266 -19.919557571411133 C 10.493795394897461 -17.24006462097168 17.814302444458008 -9.91955852508545 20.49379539489746 0.08044185489416122" stroke-width="0.0" fill="rgb(157, 196, 26)" opacity="0.9670662" stroke="rgb(68, 209, 132)" stroke-opacity="0.46180648" stroke-linecap="round" stroke-linejoin="round"/>
    <path d="M 20.03986167907715 0.4320286512374878 C 17.360368728637695 10.432028770446777 10.039860725402832 17.752534866333008 0.03986078500747681 20.43202781677246 C -9.960139274597168 17.752534866333008 -17.2806453704834 10.432028770446777 -19.96013832092285 0.4320286512374878 C -17.2806453704834 -9.567971229553223 -9.960139274597168 -16.888479232788086 0.03986078500747681 -19.56797218322754 C 10.039860725402832 -16.888479232788086 17.360368728637695 -9.567971229553223 20.03986167907715 0.4320286512374878" stroke-width="0.0" fill="rgb(80, 148, 186)" opacity="0.88876575" stroke="rgb(178, 181, 13)" stroke-opacity="0.8597478" stroke-linecap="round" stroke-linejoin="round"/>
    <path d="M 20.748958587646484 0.5692070722579956 C 18.06946563720703 10.569207191467285 10.748957633972168 17.889713287353516 0.7489576935768127 20.56920623779297 C -9.251042366027832 17.889713287353516 -16.571548461914062 10.569207191467285 -19.251041412353516 0.5692070722579956 C -16.571548461914062 -9.430792808532715 -9.251042366027832 -16.751300811767578 0.7489576935768127 -19.43079376220703 C 10.748957633972168 -16.751300811767578 18.06946563720703 -9.430792808532715 20.748958587646484 0.5692070722579956" stroke-width="0.0" fill="rgb(48, 131, 231)" opacity="0.719749" stroke="rgb(176, 145, 231)" stroke-opacity="0.12248141" stroke-linecap="round" stroke-linejoin="round"/>
    <path d="M 20.790740966796875 0.22568713128566742 C 18.111248016357422 10.225687026977539 10.790740966796875 17.546194076538086 0.7907408475875854 20.22568702697754 C -9.209259033203125 17.546194076538086 -16.529766082763672 10.225687026977539 -19.209259033203125 0.22568713128566742 C -16.529766082763672 -9.774312973022461 -9.209259033203125 -17.094820022583008 0.7907408475875854 -19.77431297302246 C 10.790740966796875 -17.094820022583008 18.111248016357422 -9.774312973022461 20.790740966796875 0.22568713128566742" stroke-width="0.0" fill="rgb(32, 241, 121)" opacity="0.9298912" stroke="rgb(126, 79, 207)" stroke-opacity="0.86715215" stroke-linecap="round" stroke-linejoin="round"/>
    <path d="M 20.522571563720703 0.45051446557044983 C 17.84307861328125 10.450514793395996 10.52257251739502 17.771020889282227 0.5225725173950195 20.45051383972168 C -9.47742748260498 17.771020889282227 -16.797935485839844 10.450514793395996 -19.477428436279297 0.45051446557044983 C -16.797935485839844 -9.549485206604004 -9.47742748260498 -16.869993209838867 0.5225725173950195 -19.54948616027832 C 10.52257251739502 -16.869993209838867 17.84307861328125 -9.549485206604004 20.522571563720703 0.45051446557044983" stroke-width="0.0" fill="rgb(171, 11, 144)" opacity="0.7409509" stroke="rgb(58, 225, 5)" stroke-opacity="0.75272715" stroke-linecap="round" stroke-linejoin="round"/>
    <path d="M 20.59381103515625 0.2912592887878418 C 17.914318084716797 10.291259765625 10.59381103515625 17.611766815185547 0.5938112139701843 20.291259765625 C -9.40618896484375 17.611766815185547 -16.726696014404297 10.291259765625 -19.40618896484375 0.2912592887878418 C -16.726696014404297 -9.708740234375 -9.40618896484375 -17.029247283935547 0.5938112139701843 -19.708740234375 C 10.59381103515625 -17.029247283935547 17.914318084716797 -9.708740234375 20.59381103515625 0.2912592887878418" stroke-width="0.0" fill="rgb(202, 153, 125)" opacity="0.9952966" stroke="rgb(97, 38, 170)" stroke-opacity="0.2842883" stroke-linecap="round" stroke-linejoin="round"/>
    <path d="M 20.702987670898438 0.4540313184261322 C 18.023494720458984 10.454030990600586 10.702987670898438 17.774538040161133 0.702987551689148 20.454030990600586 C -9.297012329101562 17.774538040161133 -16.61751937866211 10.454030990600586 -19.297012329101562 0.4540313184261322 C -16.61751937866211 -9.545969009399414 -9.297012329101562 -16.86647605895996 0.702987551689148 -19.545969009399414 C 10.702987670898438 -16.86647605895996 18.023494720458984 -9.545969009399414 20.702987670898438 0.4540313184261322" stroke-width="0.0" fill="rgb(100, 164, 38)" opacity="0.8149176" stroke="rgb(186, 5, 52)" stroke-opacity="0.48708254" stroke-linecap="round" stroke-linejoin="round"/>
    <path d="M 20.288610458374023 0.12435365468263626 C 17.60911750793457 10.124353408813477 10.288610458374023 17.444860458374023 0.288610577583313 20.124353408813477 C -9.711389541625977 17.444860458374023 -17.031896591186523 10.124353408813477 -19.711389541625977 0.12435365468263626 C -17.031896591186523 -9.875646591186523 -9.711389541625977 -17.19615364074707 0.288610577583313 -19.875646591186523 C 10.288610458374023 -17.19615364074707 17.60911750793457 -9.875646591186523 20.288610458374023 0.12435365468263626" stroke-width="0.0" fill="rgb(136, 224, 104)" opacity="0.7211382" stroke="rgb(70, 82, 241)" stroke-opacity="0.28266737" stroke-linecap="round" stroke-linejoin="round"/>
    <path d="M 20.68738555908203 0.9239110350608826 C 18.007892608642578 10.923911094665527 10.687384605407715 18.244417190551758 0.6873849034309387 20.92391014099121 C -9.312615394592285 18.244417190551758 -16.633121490478516 10.923911094665527 -19.31261444091797 0.9239110350608826 C -16.633121490478516 -9.076088905334473 -9.312615394592285 -16.396596908569336 0.6873849034309387 -19.07608985900879 C 10.687384605407715 -16.396596908569336 18.007892608642578 -9.076088905334473 20.68738555908203 0.9239110350608826" stroke-width="0.0" fill="rgb(223, 134, 237)" opacity="0.8471347" stroke="rgb(30, 204, 62)" stroke-opacity="0.8996125" stroke-linecap="round" stroke-linejoin="round"/>
    <path d="M 20.688678741455078 0.6997336745262146 C 18.009185791015625 10.69973373413086 10.688677787780762 18.020240783691406 0.688677966594696 20.69973373413086 C -9.311322212219238 18.020240783691406 -16.63182830810547 10.69973373413086 -19.311321258544922 0.6997336745262146 C -16.63182830810547 -9.30026626586914 -9.311322212219238 -16.620773315429688 0.688677966594696 -19.30026626586914 C 10.688677787780762 -16.620773315429688 18.009185791015625 -9.30026626586914 20.688678741455078 0.6997336745262146" stroke-width="0.0" fill="rgb(117, 171, 41)" opacity="0.9215617" stroke="rgb(221, 159, 170)" stroke-opacity="0.12628347" stroke-linecap="round" stroke-linejoin="round"/>
    <path d="M 20.442720413208008 0.8601666688919067 C 17.763227462768555 10.860166549682617 10.442721366882324 18.180673599243164 0.44272100925445557 20.860166549682617 C -9.557278633117676 18.180673599243164 -16.87778663635254 10.860166549682617 -19.557279586791992 0.8601666688919067 C -16.87778663635254 -9.139833450317383 -9.557278633117676 -16.46034049987793 0.44272100925445557 -19.139833450317383 C 10.442721366882324 -16.46034049987793 17.763227462768555 -9.139833450317383 20.442720413208008 0.8601666688919067" stroke-width="0.0" fill="rgb(120, 113, 1)" opacity="0.80794746" stroke="rgb(137, 172, 179)" stroke-opacity="0.95598006" stroke-linecap="round" stroke-linejoin="round"/>
    <path d="M 20.78782844543457 0.6250579953193665 C 18.108335494995117 10.6250581741333 10.78782844543457 17.94556427001953 0.7878280282020569 20.625057220458984 C -9.21217155456543 17.94556427001953 -16.532678604125977 10.6250581741333 -19.21217155456543 0.6250579953193665 C -16.532678604125977 -9.3749418258667 -9.21217155456543 -16.695449829101562 0.7878280282020569 -19.374942779541016 C 10.78782844543457 -16.695449829101562 18.108335494995117 -9.3749418258667 20.78782844543457 0.6250579953193665" stroke-width="0.0" fill="rgb(232, 240, 132)" opacity="0.93355477" stroke="rgb(33, 153, 8)" stroke-opacity="0.49756607" stroke-linecap="round" stroke-linejoin="round"/>
    <path d="M 315.6463317871094 249.94384765625 C 331.8013916015625 249.9169158935547 334.5908508300781 262.21527099609375 309.66156005859375 276.841796875 C 338.4285888671875 245.98104858398438 338.1026611328125 237.4709014892578 325.33642578125 226.15513610839844 C 303.8541564941406 225.95687866210938 300.39154052734375 249.59796142578125 305.7111511230469 236.11441040039062 C 310.1246032714844 246.82635498046875 324.07177734375 274.1357727050781 315.6463317871094 249.94384765625" stroke-width="0.0" fill="rgb(0, 0, 14)" opacity="1.0"/>
    <path d="M 20.231475830078125 0.7069558501243591 C 17.551982879638672 10.706955909729004 10.231475830078125 18.027462005615234 0.23147623240947723 20.706954956054688 C -9.768524169921875 18.027462005615234 -17.089031219482422 10.706955909729004 -19.768524169921875 0.7069558501243591 C -17.089031219482422 -9.293044090270996 -9.768524169921875 -16.61355209350586 0.23147623240947723 -19.293045043945312 C 10.231475830078125 -16.61355209350586 17.551982879638672 -9.293044090270996 20.231475830078125 0.7069558501243591" stroke-width="0.0" fill="rgb(149, 149, 113)" opacity="0.7794901" stroke="rgb(114, 137, 169)" stroke-opacity="0.78397185" stroke-linecap="round" stroke-linejoin="round"/>
    <path d="M 20.32232093811035 0.2503679096698761 C 17.6428279876709 10.250368118286133 10.322321891784668 17.57087516784668 0.3223215937614441 20.250368118286133 C -9.677678108215332 17.57087516784668 -16.998186111450195 10.250368118286133 -19.67767906188965 0.2503679096698761 C -16.998186111450195 -9.749631881713867 -9.677678108215332 -17.070138931274414 0.3223215937614441 -19.749631881713867 C 10.322321891784668 -17.070138931274414 17.6428279876709 -9.749631881713867 20.32232093811035 0.2503679096698761" stroke-width="0.0" fill="rgb(116, 66, 61)" opacity="0.96604943" stroke="rgb(96, 191, 24)" stroke-opacity="0.4760567" stroke-linecap="round" stroke-linejoin="round"/>
    <path d="M 20.173812866210938 0.07506486773490906 C 17.494319915771484 10.075064659118652 10.173813819885254 17.395572662353516 0.17381355166435242 20.07506561279297 C -9.826186180114746 17.395572662353516 -17.14669418334961 10.075064659118652 -19.826187133789062 0.07506486773490906 C -17.14669418334961 -9.924935340881348 -9.826186180114746 -17.245441436767578 0.17381355166435242 -19.92493438720703 C 10.173813819885254 -17.245441436767578 17.494319915771484 -9.924935340881348 20.173812866210938 0.07506486773490906" stroke-width="0.0" fill="rgb(96, 136, 0)" opacity="0.76246953" stroke="rgb(63, 205, 71)" stroke-opacity="0.19152132" stroke-linecap="round" stroke-linejoin="round"/>
  </g>
</svg>
